<svg width="77" height="48" viewBox="0 0 77 48" fill="none" xmlns="http://www.w3.org/2000/svg">
<path d="M31.8656 21.4714C33.4427 20.6781 34.6351 19.7945 35.4521 18.8397C36.9057 17.1201 37.623 14.84 37.623 12.0135C37.623 9.2631 36.9057 6.9117 35.4711 4.94032C33.077 1.72911 29.025 0.0855055 23.2961 0H0.599121V46.3298H21.7617C24.1464 46.3298 26.3553 46.1255 28.3979 45.7075C30.4406 45.2847 32.2077 44.5104 33.704 43.3798C35.0341 42.3965 36.1457 41.1757 37.0292 39.7363C38.4258 37.5607 39.1241 35.0953 39.1241 32.3496C39.1241 29.6894 38.5113 27.4235 37.2953 25.5614C36.0649 23.6993 34.2598 22.3359 31.8656 21.4714ZM9.96198 8.04702H20.1846C22.4315 8.04702 24.2842 8.28929 25.7378 8.76907C27.4194 9.46736 28.2602 10.8877 28.2602 13.0538C28.2602 14.9967 27.6189 16.3553 26.3505 17.1201C25.0727 17.8849 23.4149 18.2697 21.3817 18.2697H9.96198V8.04702ZM26.1273 37.4752C24.9967 38.0215 23.4054 38.2922 21.3675 38.2922H9.96198V25.9367H21.5242C23.5384 25.9509 25.106 26.2169 26.227 26.7157C28.2222 27.6183 29.215 29.2714 29.215 31.6893C29.215 34.5395 28.1889 36.4586 26.1273 37.4752Z" fill="#333333"/>
<path d="M69.2933 2.16138H49.1663V7.92825H69.2933V2.16138Z" fill="#333333"/>
<path d="M76.286 24.9203C75.8679 22.2363 74.9464 19.8754 73.5118 17.8375C71.9394 15.5289 69.9443 13.8378 67.5169 12.769C65.099 11.6954 62.3771 11.1586 59.3464 11.1634C54.2588 11.1634 50.126 12.7547 46.9291 15.9137C43.7416 19.0821 42.1455 23.6377 42.1455 29.5756C42.1455 35.9077 43.9079 40.4823 47.4516 43.2897C50.9811 46.1019 55.0568 47.5032 59.6836 47.5032C65.2843 47.5032 69.6403 45.8359 72.7517 42.5106C74.7421 40.411 75.8679 38.3446 76.115 36.3162H66.8424C66.3056 37.3186 65.6833 38.1024 64.9707 38.6724C63.6786 39.7175 61.997 40.24 59.9354 40.24C57.9735 40.24 56.3109 39.8077 54.9238 38.9479C52.6342 37.5703 51.4371 35.1572 51.2851 31.7227H76.59C76.628 28.7632 76.533 26.4879 76.286 24.9203ZM51.5131 25.8086C51.8456 23.5807 52.6532 21.8135 53.9358 20.5072C55.2184 19.2056 57.033 18.5501 59.3559 18.5453C61.4983 18.5453 63.2891 19.1581 64.7475 20.3885C66.1868 21.6283 66.9991 23.4287 67.1654 25.8086H51.5131Z" fill="#333333"/>
</svg>
