<svg width="60" height="60" viewBox="0 0 60 60" fill="none" xmlns="http://www.w3.org/2000/svg">
<path d="M43.5246 0.142334H16.7747C7.69059 0.142334 0.300049 7.53327 0.300049 16.6175V43.3675C0.300049 52.452 7.69059 59.8426 16.7747 59.8426H43.5246C52.6094 59.8426 60 52.4517 60 43.3675V16.6175C60.0003 7.53327 52.6094 0.142334 43.5246 0.142334ZM54.7035 43.3675C54.7035 49.5313 49.6887 54.5457 43.525 54.5457H16.7747C10.6113 54.5461 5.59692 49.5313 5.59692 43.3675V16.6175C5.59692 10.454 10.6113 5.43923 16.7747 5.43923H43.5246C49.6884 5.43923 54.7031 10.454 54.7031 16.6175V43.3675H54.7035Z" fill="#333333"/>
<path d="M30.15 14.6101C21.6676 14.6101 14.7668 21.5108 14.7668 29.9932C14.7668 38.4752 21.6676 45.3756 30.15 45.3756C38.6324 45.3756 45.5332 38.4752 45.5332 29.9932C45.5332 21.5108 38.6324 14.6101 30.15 14.6101ZM30.15 40.0784C24.5887 40.0784 20.0637 35.5542 20.0637 29.9929C20.0637 24.4312 24.5883 19.9066 30.15 19.9066C35.7117 19.9066 40.2363 24.4312 40.2363 29.9929C40.2363 35.5542 35.7114 40.0784 30.15 40.0784Z" fill="#333333"/>
<path d="M46.1783 10.1187C45.1578 10.1187 44.1553 10.5318 43.4345 11.2557C42.7103 11.9761 42.2939 12.9789 42.2939 14.003C42.2939 15.0238 42.7106 16.0264 43.4345 16.7502C44.1549 17.4706 45.1578 17.8873 46.1783 17.8873C47.2024 17.8873 48.2017 17.4706 48.9256 16.7502C49.6495 16.0264 50.0627 15.0235 50.0627 14.003C50.0627 12.9789 49.6495 11.9761 48.9256 11.2557C48.2053 10.5318 47.2024 10.1187 46.1783 10.1187Z" fill="#333333"/>
</svg>
