<svg width="60" height="60" viewBox="0 0 60 60" fill="none" xmlns="http://www.w3.org/2000/svg">
<g clip-path="url(#clip0)">
<path d="M30 0C13.5168 0 0.149902 13.3669 0.149902 29.8501C0.149902 46.3334 13.5168 59.7003 30 59.7003C46.4833 59.7003 59.8502 46.3334 59.8502 29.8501C59.8502 13.3669 46.4833 0 30 0ZM21.3259 45.125H14.0561V23.2535H21.3259V45.125ZM17.6912 20.2669H17.6439C15.2043 20.2669 13.6266 18.5876 13.6266 16.4887C13.6266 14.3425 15.2526 12.7096 17.7395 12.7096C20.2264 12.7096 21.7568 14.3425 21.8042 16.4887C21.8042 18.5876 20.2264 20.2669 17.6912 20.2669ZM47.5395 45.125H40.2706V33.4243C40.2706 30.4837 39.218 28.4782 36.5876 28.4782C34.5794 28.4782 33.3833 29.831 32.8577 31.1369C32.6655 31.6042 32.6186 32.2573 32.6186 32.9109V45.125H25.3492C25.3492 45.125 25.4444 25.3054 25.3492 23.2535H32.6186V26.3503C33.5846 24.8599 35.3132 22.7401 39.1702 22.7401C43.9531 22.7401 47.5395 25.8661 47.5395 32.5839V45.125Z" fill="#333333"/>
</g>
<defs>
<clipPath id="clip0">
<rect width="59.7003" height="59.7003" fill="white" transform="translate(0.149902)"/>
</clipPath>
</defs>
</svg>
