<svg width="60" height="60" viewBox="0 0 60 60" fill="none" xmlns="http://www.w3.org/2000/svg">
<g clip-path="url(#clip0)">
<path d="M54.9367 11.7734L59.7003 7.21624V6.21875H43.1981L31.4372 35.4918L18.0568 6.21875H0.753716V7.21624L6.31828 13.9151C6.86056 14.4101 7.14413 15.134 7.07199 15.8628V42.1882C7.24363 43.1359 6.93518 44.111 6.26853 44.8001L0 52.3969V53.382H17.7733V52.3845L11.5047 44.8001C10.8256 44.1085 10.5048 43.1508 10.6416 42.1882V19.4175L26.2432 53.3944H28.0566L41.4718 19.4175V46.4841C41.4718 47.198 41.4718 47.3448 41.0041 47.8124L36.1784 52.4815V53.4815H59.5908V52.484L54.9392 47.9293C54.5312 47.6209 54.3198 47.1035 54.4068 46.601V13.1017C54.3198 12.5967 54.5287 12.0793 54.9367 11.7734V11.7734Z" fill="#333333"/>
</g>
<defs>
<clipPath id="clip0">
<rect width="59.7003" height="59.7003" fill="white"/>
</clipPath>
</defs>
</svg>
